# xmcd
#
# Track frame offsets: 
#        183
#        11610
#        23740
#        36068
#        50423
#        64485
#        74688
#        85585
#        99465
#        112540
#        122568
#        128983
#        137803
#        152808
#        163585
#        178910
#        195085
#        208555
#
# Disc length: 2895 seconds
#
# Revision: 2
# Processed by: cddbd v1.5.2PL0 Copyright (c) Steve Scherf et al.
# Submitted via: ExactAudioCopy v0.99pb5
#
DISCID=ee0b4d12
DTITLE=Various Artist - The Nashville Dream (Disc1)
DYEAR=2005
DGENRE=Country
TTITLE0=George Jones - Tender Years
TTITLE1=Roger Miller - Little Green Apples
TTITLE2=Jim Reeves - Your Old Love Letters
TTITLE3=Johnny Paycheck - Almost Persuaded
TTITLE4=Willie Nelson - Undo The Wrong
TTITLE5=Carl Perkins - This Ole House
TTITLE6=Faron Young - Here Comes My Baby Again
TTITLE7=Kenny Rogers - Ruby, Don`t Take Your Love To Town
TTITLE8=Charley Pride - Crystal Chandeliers
TTITLE9=George Jones - Lonely Sreet
TTITLE10=Jim Reeves - Have I Told You Lately
TTITLE11=Sonny James - Bimbo
TTITLE12=Don Gibson - I Can`t Stop Loving You
TTITLE13=Jim Reeves - Just Call Me Lonesome
TTITLE14=Narvel Felts - Everything Is Beautiful
TTITLE15=Don Williams - Tears
TTITLE16=Freddy Fender - That Girl Who Waits On Tables
TTITLE17=Waylon Jennings - Love`s Gonna Live Here
EXTD=
EXTT0=
EXTT1=
EXTT2=
EXTT3=
EXTT4=
EXTT5=
EXTT6=
EXTT7=
EXTT8=
EXTT9=
EXTT10=
EXTT11=
EXTT12=
EXTT13=
EXTT14=
EXTT15=
EXTT16=
EXTT17=
PLAYORDER=
